# xmcd
# 
# Track frame offsets:
#     150
#     12400
#     26752
#     40337
#     53787
#     70672
#     87475
#     100747
#     116092
#     127742
#     142500
#     164012
#     182177
#     201555
# 
# Disc length: 2901
# 
# Revision: 6
# Processed by: cddbd v1.5.2PL0 Copyright (c) Steve Scherf et al.
# Submitted via: fre:ac v1.0.17
# 
DISCID=c10b530e
DTITLE=Dwight Yoakam - If There Was A Way
DYEAR=1990
DGENRE=Country
TTITLE0=The Distance Bewtween You And Me
TTITLE1=The Heart That You Own
TTITLE2=Takes A Lot To Rock You
TTITLE3=Nothing's Changed Here
TTITLE4=Sad, Sad Music
TTITLE5=Since I started Drinkin' Again
TTITLE6=If There Was A Way
TTITLE7=Turn It On, Turn It Up, Turn Me Loose
TTITLE8=It Only Hurts When I Cry
TTITLE9=Send A Message
TTITLE10=I DOn't Need It Done
TTITLE11=You're The One
TTITLE12=Dangerous Man
TTITLE13=Let's Work Together
EXTD=YEAR: 1990
EXTT0=
EXTT1=
EXTT2=
EXTT3=
EXTT4=
EXTT5=
EXTT6=
EXTT7=
EXTT8=
EXTT9=
EXTT10=
EXTT11=
EXTT12=
EXTT13=
PLAYORDER=
